<?xml version="1.0" encoding="utf-8"?>
<!-- Generator: Adobe Illustrator 18.0.0, SVG Export Plug-In . SVG Version: 6.00 Build 0)  -->
<!DOCTYPE svg PUBLIC "-//W3C//DTD SVG 1.1//EN" "http://www.w3.org/Graphics/SVG/1.1/DTD/svg11.dtd">
<svg version="1.1" id="Layer_1" xmlns="http://www.w3.org/2000/svg" xmlns:xlink="http://www.w3.org/1999/xlink" x="0px" y="0px"
	 viewBox="0 0 117 117" enable-background="new 0 0 117 117" xml:space="preserve">
<g>
	<path fill="#2A2F35" d="M112,117.7H5c-2.8,0-5-2.2-5-5l0-107c0-2.8,2.2-5,5-5h107c2.8,0,5,2.2,5,5v107
		C117,115.5,114.8,117.7,112,117.7z"/>
	<g>
		<path fill="#FFFFFF" d="M82.7,77.9c0-0.2,0-0.3,0-0.5l0-0.1l0-46.6l0,0c0-1-0.8-1.8-1.8-1.8c-0.5,0-0.9,0.2-1.2,0.4L59.2,42.8
			c0,0-0.3,0.2-0.7,0.2c-0.5,0-0.7-0.2-0.7-0.2L37.3,29.4c-0.3-0.3-0.7-0.4-1.2-0.4c-1,0-1.8,0.8-1.8,1.8l0,0l0,46.4l0,1l0,0.1
			c0.1,0.9,0.5,1.6,1,2.2l0,0.1l0.2,0.1l0,0l20.7,14.2l0,0c0.6,0.5,1.3,0.8,2.2,0.8c0,0,0.1,0,0.1,0c0,0,0.1,0,0.1,0
			c0.8,0,1.6-0.3,2.2-0.8l0,0l20.5-14.1c0,0,0.1-0.1,0.1-0.1l0.1-0.1l0,0c0,0,0.1,0,0.1-0.1l0.1-0.1l0,0c0.6-0.6,1-1.4,1.1-2.2l0,0
			l0-0.1C82.7,77.9,82.7,77.9,82.7,77.9z M75.9,75.7c0,0,0,0.3-0.1,0.6c-0.1,0.3-0.4,0.4-0.4,0.4L59.2,87.3c0,0-0.2,0.2-0.7,0.2
			c-0.5,0-0.7-0.2-0.7-0.2L41.7,76.8c0,0-0.2-0.1-0.4-0.4c-0.1-0.2-0.2-0.4-0.2-0.5V43.4c0-0.2,0.1-0.7,0.5-1c0.7-0.5,1.4,0,1.4,0
			l13.6,8.3c0.5,0.4,1.2,0.6,1.9,0.6c0.6,0,1.3-0.2,1.8-0.5l0,0l14-8.5c0.3-0.1,0.7-0.1,1.1,0.1c0.5,0.3,0.5,0.8,0.5,1V75.7z"/>
		<path fill="#FFFFFF" d="M57.9,59.7L57.9,59.7l-8-5c-0.2-0.1-0.5-0.2-0.7-0.2c-0.7,0-1.2,0.5-1.2,1.2l0,0v0c0,0,0,0,0,0s0,0,0,0
			v16.5l0,0c0,0.3,0.1,0.6,0.3,0.8c0.1,0.1,0.2,0.2,0.4,0.2l7.9,5c0,0,0,0,0,0l0,0l0,0c0.2,0.1,0.4,0.2,0.7,0.2
			c0.7,0,1.2-0.5,1.2-1.2l0,0V60.6l0,0C58.5,60.2,58.2,59.9,57.9,59.7z"/>
	</g>
</g>
</svg>
